<svg xmlns="http://www.w3.org/2000/svg" viewBox="0 0 748.09 176.95"><defs><style>.cls-1{fill:#705da7;}.cls-2{fill:#fcfcfd;}.cls-3{stroke:#fcfcfd;stroke-miterlimit:10;stroke-width:0.5px;}</style></defs><title>Logo-svg</title><g id="Layer_2" data-name="Layer 2"><g id="Layer_1-2" data-name="Layer 1"><path class="cls-1" d="M187.19,0l-14,21.93-3.35,5.26-29.95,47-14-22.48a6.27,6.27,0,0,0-5.31-2.94H105.38l24.51,37.84-44,68.16H18.8A18.8,18.8,0,0,1,0,136V40.73a18.8,18.8,0,0,1,18.8-18.8H138a8.89,8.89,0,0,0,3.73-.82Z"/><path class="cls-2" d="M63.68,126.68V63.45a1.25,1.25,0,0,0-1.25-1.26h-21a1.25,1.25,0,0,1-1.25-1.25V50.06a1.25,1.25,0,0,1,1.25-1.25h60.38a1.25,1.25,0,0,1,1.25,1.25V60.94a1.25,1.25,0,0,1-1.25,1.25H80.91a1.25,1.25,0,0,0-1.25,1.26v63.23a1.25,1.25,0,0,1-1.26,1.26H64.93A1.25,1.25,0,0,1,63.68,126.68Z"/><path class="cls-2" d="M197.29,10.11a9.87,9.87,0,0,1-1.63,5.44l-4.11,6.38L149.38,87.24l27,40.69H160.57a6.25,6.25,0,0,1-5.27-2.88l-15.7-24.48-29.8,46.65L105,154.81,90.81,177a10.46,10.46,0,0,1-10.47-10.47A10.34,10.34,0,0,1,82,160.84l3.89-6,44-68.16L105.38,48.81h15.21a6.27,6.27,0,0,1,5.31,2.94l14,22.48,29.95-47,3.35-5.26L187.19,0A10.1,10.1,0,0,1,197.29,10.11Z"/><path class="cls-1" d="M219.12,40.73V136a18.8,18.8,0,0,1-18.8,18.79H141.83a8.84,8.84,0,0,0-3.64.79L90.81,177,105,154.81l4.85-7.59,29.8-46.65,15.69,24.48a6.28,6.28,0,0,0,5.28,2.88h15.85l-27-40.69,42.17-65.31h8.77A18.8,18.8,0,0,1,219.12,40.73Z"/><path class="cls-2" d="M290,96.43l-4-11.27h-25.7l-3.76,11.27H243.24l21.91-62.58h15.28l22.08,62.58Zm-25.66-22.8H282l-9-25.57Z"/><path class="cls-2" d="M326.08,97.68a23.13,23.13,0,0,1-23.6-23.6,23.13,23.13,0,0,1,23.6-23.6A23.14,23.14,0,0,1,338,53.61,20.71,20.71,0,0,1,346.1,62l-9.92,5.81a10.06,10.06,0,0,0-4.07-4.38A11.85,11.85,0,0,0,326,61.83a11.55,11.55,0,0,0-8.58,3.44,12,12,0,0,0-3.4,8.81,11.85,11.85,0,0,0,3.4,8.71A11.52,11.52,0,0,0,326,86.24a12.2,12.2,0,0,0,6.21-1.57,9.83,9.83,0,0,0,4.07-4.33l10,5.72A22.38,22.38,0,0,1,338,94.51,23,23,0,0,1,326.08,97.68Z"/><path class="cls-2" d="M372.92,97.68a23.13,23.13,0,0,1-23.6-23.6,23.71,23.71,0,0,1,35.49-20.47A20.74,20.74,0,0,1,393,62L383,67.82A10.12,10.12,0,0,0,379,63.44a11.86,11.86,0,0,0-6.13-1.61,11.58,11.58,0,0,0-8.58,3.44,12,12,0,0,0-3.4,8.81,11.89,11.89,0,0,0,3.4,8.71,11.55,11.55,0,0,0,8.58,3.45,12.21,12.21,0,0,0,6.22-1.57,9.87,9.87,0,0,0,4.06-4.33l10,5.72a22.41,22.41,0,0,1-8.32,8.45A23,23,0,0,1,372.92,97.68Z"/><path class="cls-2" d="M437.58,90.84a23.63,23.63,0,0,1-40.41-16.76,23.65,23.65,0,1,1,47.29,0A22.75,22.75,0,0,1,437.58,90.84Zm-25.44-7.91a11.65,11.65,0,0,0,8.63,3.49,11.79,11.79,0,0,0,8.67-3.49,12,12,0,0,0,3.49-8.85,12,12,0,0,0-3.49-8.85,11.75,11.75,0,0,0-8.67-3.49,11.62,11.62,0,0,0-8.63,3.49,12.08,12.08,0,0,0-3.44,8.85A12.11,12.11,0,0,0,412.14,82.93Z"/><path class="cls-2" d="M480.09,51.73h11.54v44.7H480.09v-5q-4.2,6.26-13.32,6.26a16.18,16.18,0,0,1-12.11-4.92q-4.79-4.91-4.78-13.59V51.73h11.53v26q0,4.47,2.41,6.84A8.8,8.8,0,0,0,470.26,87a9.48,9.48,0,0,0,7.15-2.77q2.68-2.78,2.68-8.31Z"/><path class="cls-2" d="M525,50.48a16.21,16.21,0,0,1,12.11,4.91q4.79,4.92,4.79,13.59V96.43H530.39v-26q0-4.47-2.41-6.84a8.84,8.84,0,0,0-6.44-2.36A9.48,9.48,0,0,0,514.39,64c-1.79,1.84-2.68,4.62-2.68,8.31V96.43H500.18V51.73h11.53v5Q515.91,50.47,525,50.48Z"/><path class="cls-2" d="M574.33,62.81H564.22v18.6a4.42,4.42,0,0,0,1.17,3.4,5.33,5.33,0,0,0,3.39,1.2,49.7,49.7,0,0,0,5.55,0V96.43q-11.9,1.33-16.77-2.24t-4.87-12.78V62.81h-7.78V51.73h7.78v-9l11.53-3.49V51.73h10.11Z"/><path class="cls-2" d="M613.09,51.73h11.54v44.7H613.09V91.15q-5.18,6.52-14.57,6.53a20.25,20.25,0,0,1-15.33-6.84,23.64,23.64,0,0,1-6.39-16.76,23.63,23.63,0,0,1,6.39-16.76,20.25,20.25,0,0,1,15.33-6.84q9.39,0,14.57,6.52ZM591.82,83.15a11.87,11.87,0,0,0,8.85,3.53,12,12,0,0,0,8.89-3.53,12.29,12.29,0,0,0,3.53-9.07A12.31,12.31,0,0,0,609.56,65a12.07,12.07,0,0,0-8.89-3.53A11.91,11.91,0,0,0,591.82,65a12.36,12.36,0,0,0-3.49,9.08A12.34,12.34,0,0,0,591.82,83.15Z"/><path class="cls-2" d="M657.94,50.48a16.21,16.21,0,0,1,12.11,4.91q4.79,4.92,4.78,13.59V96.43H663.3v-26q0-4.47-2.41-6.84a8.84,8.84,0,0,0-6.44-2.36A9.48,9.48,0,0,0,647.3,64c-1.79,1.84-2.68,4.62-2.68,8.31V96.43H633.08V51.73h11.54v5Q648.82,50.47,657.94,50.48Z"/><path class="cls-2" d="M707.23,62.81h-10.1v18.6a4.45,4.45,0,0,0,1.16,3.4,5.39,5.39,0,0,0,3.4,1.2,49.52,49.52,0,0,0,5.54,0V96.43q-11.88,1.33-16.76-2.24T685.6,81.41V62.81h-7.78V51.73h7.78v-9l11.53-3.49V51.73h10.1Z"/><path class="cls-2" d="M725,64.42c0,1.2.79,2.16,2.37,2.91a32.18,32.18,0,0,0,5.77,2A59.09,59.09,0,0,1,740,71.44a13.2,13.2,0,0,1,5.77,4.34,12,12,0,0,1,2.37,7.6q0,6.89-5.14,10.59a21.38,21.38,0,0,1-12.83,3.71q-13.77,0-18.77-10.64l10-5.63q2,5.81,8.76,5.81,6.17,0,6.17-3.84c0-1.2-.79-2.16-2.37-2.91a34.52,34.52,0,0,0-5.77-2,59.86,59.86,0,0,1-6.79-2.24A13.86,13.86,0,0,1,715.59,72a11.17,11.17,0,0,1-2.37-7.29,12.48,12.48,0,0,1,4.88-10.41,19,19,0,0,1,12.11-3.8,20.24,20.24,0,0,1,9.92,2.46,18,18,0,0,1,7.07,7l-9.84,5.37a7.35,7.35,0,0,0-7.15-4.56,6.59,6.59,0,0,0-3.71,1A3.08,3.08,0,0,0,725,64.42Z"/><path class="cls-2" d="M252,153.84a7.52,7.52,0,1,1,0-15,7.23,7.23,0,0,1,3.7,1,6.72,6.72,0,0,1,2.6,2.61l-1.29.74a5.17,5.17,0,0,0-2-2.11,5.74,5.74,0,0,0-3-.79,5.92,5.92,0,0,0-4.44,1.76A6.11,6.11,0,0,0,252,152.43a5.74,5.74,0,0,0,3-.79,5.14,5.14,0,0,0,2-2.12l1.29.73a6.72,6.72,0,0,1-2.59,2.62A7.29,7.29,0,0,1,252,153.84Z"/><path class="cls-2" d="M285.18,151.65a7.61,7.61,0,1,1,2.18-5.33A7.23,7.23,0,0,1,285.18,151.65Zm-9.66-1a6.16,6.16,0,0,0,8.64,0,6.24,6.24,0,0,0,0-8.67,6.16,6.16,0,0,0-8.64,0,6.27,6.27,0,0,0,0,8.67Z"/><path class="cls-2" d="M311.67,139.05h1.45v14.54h-1.24l-8.1-11.84v11.84h-1.46V139.05h1.27l8.08,11.81Z"/><path class="cls-2" d="M338.26,139.05h1.46v14.54h-1.25l-8.1-11.84v11.84h-1.46V139.05h1.27l8.08,11.81Z"/><path class="cls-2" d="M357,152.22H364v1.37H355.5V139.05h8.42v1.37h-7v5.16h6.44V147H357Z"/><path class="cls-2" d="M385.67,153.84a7.52,7.52,0,1,1,0-15,7.25,7.25,0,0,1,3.7,1,6.72,6.72,0,0,1,2.6,2.61l-1.29.74a5.17,5.17,0,0,0-2-2.11,5.74,5.74,0,0,0-3-.79,6.11,6.11,0,1,0,0,12.21,5.74,5.74,0,0,0,3-.79,5.14,5.14,0,0,0,2-2.12l1.29.73a6.72,6.72,0,0,1-2.59,2.62A7.31,7.31,0,0,1,385.67,153.84Z"/><path class="cls-2" d="M415.75,139.05v1.37h-4.46v13.17h-1.46V140.42h-4.47v-1.37Z"/><path class="cls-2" d="M430.29,139.05h1.46v14.54h-1.46Z"/><path class="cls-2" d="M456.89,139.05h1.45v14.54h-1.25L449,141.75v11.84h-1.45V139.05h1.27l8.08,11.81Z"/><path class="cls-2" d="M488,146.68v.74A6.08,6.08,0,0,1,486.1,152a7.17,7.17,0,0,1-5.18,1.86,7.52,7.52,0,1,1,0-15,7.23,7.23,0,0,1,3.7,1,6.9,6.9,0,0,1,2.6,2.6l-1.29.74a5.15,5.15,0,0,0-2-2.11,5.8,5.8,0,0,0-3-.79,5.92,5.92,0,0,0-4.44,1.76,6.11,6.11,0,0,0,4.44,10.45,5.93,5.93,0,0,0,3.93-1.23,4.66,4.66,0,0,0,1.68-3.15h-5.77v-1.37Z"/><path class="cls-2" d="M531.14,139.05l-5.26,8.58v6h-1.45v-6l-5.24-8.54h1.64l4.35,7.13,4.32-7.13Z"/><path class="cls-2" d="M556.46,151.65a7.61,7.61,0,1,1,2.18-5.33A7.23,7.23,0,0,1,556.46,151.65Zm-9.66-1a6.16,6.16,0,0,0,8.64,0,6.24,6.24,0,0,0,0-8.67,6.16,6.16,0,0,0-8.64,0,6.27,6.27,0,0,0,0,8.67Z"/><path class="cls-2" d="M582.6,152.43a6.13,6.13,0,0,1-7.82,0,5,5,0,0,1-1.49-3.78v-9.6h1.45v9.6a3.7,3.7,0,0,0,1,2.76,4.66,4.66,0,0,0,5.82,0,3.7,3.7,0,0,0,1-2.76v-9.6h1.45v9.6A5,5,0,0,1,582.6,152.43Z"/><path class="cls-2" d="M629.36,151.65a7.61,7.61,0,1,1,2.18-5.33A7.23,7.23,0,0,1,629.36,151.65Zm-9.66-1a6.16,6.16,0,0,0,8.64,0,6.24,6.24,0,0,0,0-8.67,6.16,6.16,0,0,0-8.64,0,6.27,6.27,0,0,0,0,8.67Z"/><path class="cls-2" d="M655.85,139.05h1.45v14.54h-1.24L648,141.75v11.84H646.5V139.05h1.27l8.08,11.81Z"/><path class="cls-2" d="M674.55,152.22h6.64v1.37h-8.1V139.05h1.46Z"/><path class="cls-2" d="M695.74,139.05h1.45v14.54h-1.45Z"/><path class="cls-2" d="M722.33,139.05h1.45v14.54h-1.24l-8.11-11.84v11.84H713V139.05h1.27l8.08,11.81Z"/><path class="cls-2" d="M741,152.22h7.06v1.37h-8.52V139.05H748v1.37h-7v5.16h6.44V147H741Z"/><line class="cls-3" x1="243.04" y1="121.47" x2="748.04" y2="121.47"/></g></g></svg>