<svg xmlns="http://www.w3.org/2000/svg" viewBox="0 0 746.31 177.1"><defs><style>.cls-1{fill:#705da7;}.cls-2{fill:#fcfcfd;}.cls-3{fill:#fff;}</style></defs><g id="Layer_2" data-name="Layer 2"><g id="Layer_1-2" data-name="Layer 1"><path class="cls-1" d="M187.2.1,173.2,22l-3.4,5.3-29.9,47-14-22.5a6.29,6.29,0,0,0-5.3-2.9H105.4l24.5,37.8-44,68.2H18.8A18.78,18.78,0,0,1,0,136.1V40.8A18.78,18.78,0,0,1,18.8,22H138a9.09,9.09,0,0,0,3.7-.8Z"/><path class="cls-2" d="M63.7,126.8V63.6a1.24,1.24,0,0,0-1.2-1.3h-21a1.22,1.22,0,0,1-1.2-1.2V50.2A1.22,1.22,0,0,1,41.5,49h60.4a1.22,1.22,0,0,1,1.2,1.2V61.1a1.22,1.22,0,0,1-1.2,1.2h-21a1.31,1.31,0,0,0-1.3,1.2h0v63.2a1.24,1.24,0,0,1-1.2,1.3H64.9a1.16,1.16,0,0,1-1.2-1.2Z"/><path class="cls-2" d="M197.3,10.2a10.32,10.32,0,0,1-1.6,5.4L191.6,22,149.4,87.3l27,40.7H160.6a6.43,6.43,0,0,1-5.3-2.9l-15.7-24.5-29.8,46.7-4.8,7.6L90.8,177.1a10.48,10.48,0,0,1-10.5-10.4h0A10.56,10.56,0,0,1,82,161l3.9-6,44-68.2L105.4,48.9h15.2a6.17,6.17,0,0,1,5.3,2.9l14,22.5,29.9-47,3.4-5.3,14-22a10.22,10.22,0,0,1,10.1,10.2Z"/><path class="cls-1" d="M219.1,40.8v95.3a18.78,18.78,0,0,1-18.8,18.8H141.8a8.63,8.63,0,0,0-3.6.8L90.8,177.1,105,154.9l4.8-7.6,29.8-46.7,15.7,24.5a6.29,6.29,0,0,0,5.3,2.9h15.9l-27-40.7L191.7,22h8.8A18.8,18.8,0,0,1,219.1,40.8Z"/><path class="cls-3" d="M288,91.5l-4-11.3H258.3l-3.8,11.3H241.2l21.9-62.6h15.3l22.1,62.6ZM262.3,68.7H280l-9-25.6Z"/><path class="cls-3" d="M324.1,92.8a23.13,23.13,0,0,1-23.6-22.7v-.9a23.13,23.13,0,0,1,22.7-23.6h.9A22.53,22.53,0,0,1,336,48.7a21.11,21.11,0,0,1,8.1,8.4l-9.9,5.8a10.24,10.24,0,0,0-4.1-4.4,12.1,12.1,0,0,0-6.1-1.6,11.6,11.6,0,0,0-8.6,3.4,11.9,11.9,0,0,0-3.4,8.8,11.83,11.83,0,0,0,3.4,8.7,11.6,11.6,0,0,0,8.6,3.4,12.2,12.2,0,0,0,6.2-1.6,10,10,0,0,0,4.1-4.3l10,5.7a23.32,23.32,0,0,1-8.3,8.5A22.72,22.72,0,0,1,324.1,92.8Z"/><path class="cls-3" d="M370.9,92.8a23.13,23.13,0,0,1-23.6-22.7v-.9a23.69,23.69,0,0,1,23.8-23.6,24.08,24.08,0,0,1,11.7,3.1,21.36,21.36,0,0,1,8.2,8.4l-10,5.8a10.64,10.64,0,0,0-4-4.4,12.52,12.52,0,0,0-14.7,1.8,11.9,11.9,0,0,0-3.4,8.8,11.83,11.83,0,0,0,3.4,8.7,11.6,11.6,0,0,0,8.6,3.4,12.2,12.2,0,0,0,6.2-1.6,10,10,0,0,0,4.1-4.3l10,5.7a23.82,23.82,0,0,1-20.3,11.8Z"/><path class="cls-3" d="M435.6,85.9a23.57,23.57,0,0,1-33.4.1,23.92,23.92,0,0,1-7-16.9,23.65,23.65,0,0,1,47.3-.9v1A22.8,22.8,0,0,1,435.6,85.9ZM410.1,78a11.7,11.7,0,0,0,8.6,3.5,12,12,0,0,0,12.2-12.3,12,12,0,0,0-3.5-8.8,11.76,11.76,0,0,0-8.7-3.5,11.54,11.54,0,0,0-8.6,3.5,12.21,12.21,0,0,0-3.4,8.8,11.9,11.9,0,0,0,3.4,8.8Z"/><path class="cls-3" d="M478.1,46.8h11.5V91.5H478.1v-5c-2.8,4.2-7.2,6.3-13.3,6.3a16.29,16.29,0,0,1-12.1-4.9c-3.2-3.3-4.8-7.8-4.8-13.6V46.8h11.5v26c0,3,.8,5.3,2.4,6.8a8.57,8.57,0,0,0,6.4,2.4,9.27,9.27,0,0,0,7.1-2.8c1.8-1.9,2.7-4.6,2.7-8.3V46.8Z"/><path class="cls-3" d="M523,45.6a16.29,16.29,0,0,1,12.1,4.9c3.2,3.3,4.8,7.8,4.8,13.6V91.6H528.4v-26c0-3-.8-5.3-2.4-6.8a9,9,0,0,0-6.4-2.4,9.64,9.64,0,0,0-7.2,2.8c-1.8,1.8-2.7,4.6-2.7,8.3V91.6H498.2V46.8h11.5v5C512.5,47.7,516.9,45.6,523,45.6Z"/><path class="cls-3" d="M572.3,57.9H562.2V76.5a4.35,4.35,0,0,0,1.2,3.4,5.43,5.43,0,0,0,3.4,1.2,50.45,50.45,0,0,0,5.5,0V91.5c-7.9.9-13.5.1-16.8-2.2s-4.9-6.6-4.9-12.8V57.9h-7.8V46.8h7.8v-9l11.5-3.5V46.8h10.1Z"/><path class="cls-3" d="M611.1,46.8h11.5V91.5H611.1V86.2c-3.5,4.3-8.3,6.5-14.6,6.5a20.09,20.09,0,0,1-15.3-6.8,24.17,24.17,0,0,1-6.4-16.8,23.46,23.46,0,0,1,6.4-16.8,20,20,0,0,1,15.3-6.8c6.3,0,11.1,2.2,14.6,6.5ZM589.8,78.3a11.61,11.61,0,0,0,8.8,3.5,12.38,12.38,0,0,0,8.9-3.5,11.9,11.9,0,0,0,3.5-9.1,12.68,12.68,0,0,0-3.5-9.1,12.94,12.94,0,0,0-17.7,0,12.27,12.27,0,0,0-3.5,9.1A12.84,12.84,0,0,0,589.8,78.3Z"/><path class="cls-3" d="M655.9,45.6A16.29,16.29,0,0,1,668,50.5c3.2,3.3,4.8,7.8,4.8,13.6V91.6H661.3v-26c0-3-.8-5.3-2.4-6.8a9,9,0,0,0-6.4-2.4,9.64,9.64,0,0,0-7.2,2.8c-1.8,1.8-2.7,4.6-2.7,8.3V91.6H631.1V46.8h11.5v5C645.4,47.7,649.9,45.6,655.9,45.6Z"/><path class="cls-3" d="M705.2,57.9H695.1V76.5a4.35,4.35,0,0,0,1.2,3.4,5.43,5.43,0,0,0,3.4,1.2,50.45,50.45,0,0,0,5.5,0V91.5c-7.9.9-13.5.1-16.8-2.2s-4.9-6.6-4.9-12.8V57.9h-7.8V46.8h7.8v-9L695,34.3V46.8h10.1V57.9Z"/><path class="cls-3" d="M723,59.5c0,1.2.8,2.2,2.4,2.9a39.74,39.74,0,0,0,5.8,2q3.45.9,6.9,2.1a13.82,13.82,0,0,1,5.8,4.3,12.28,12.28,0,0,1,2.4,7.6A12.34,12.34,0,0,1,741.2,89a21.06,21.06,0,0,1-12.8,3.7c-9.2,0-15.4-3.5-18.8-10.6l10-5.6c1.3,3.9,4.3,5.8,8.8,5.8,4.1,0,6.2-1.3,6.2-3.8,0-1.2-.8-2.2-2.4-2.9a39.74,39.74,0,0,0-5.8-2c-2.3-.6-4.6-1.4-6.8-2.2a13.6,13.6,0,0,1-5.8-4.2,11.45,11.45,0,0,1-2.4-7.3,12.43,12.43,0,0,1,4.9-10.4,19,19,0,0,1,12.1-3.8,20,20,0,0,1,9.9,2.5,17.71,17.71,0,0,1,7.1,7l-9.8,5.4a7.43,7.43,0,0,0-7.2-4.6,6.86,6.86,0,0,0-3.7,1A2.58,2.58,0,0,0,723,59.5Z"/><rect class="cls-3" x="241.2" y="110.3" width="505" height="2"/><path class="cls-3" d="M251.26,148.2a9,9,0,1,1,0-17.9,8.69,8.69,0,0,1,4.41,1.15,8.07,8.07,0,0,1,3.09,3.1l-1.54.89a6.05,6.05,0,0,0-2.42-2.52,6.84,6.84,0,0,0-3.54-.94,7.27,7.27,0,1,0,0,14.54,6.94,6.94,0,0,0,3.54-.94,6.13,6.13,0,0,0,2.42-2.53l1.54.87a8,8,0,0,1-3.08,3.12A8.76,8.76,0,0,1,251.26,148.2Z"/><path class="cls-3" d="M285.81,145.59a9.07,9.07,0,1,1,2.59-6.34A8.62,8.62,0,0,1,285.81,145.59Zm-11.5-1.19a7.3,7.3,0,0,0,10.29,0,7.45,7.45,0,0,0,0-10.31,7.33,7.33,0,0,0-10.29,0,7.43,7.43,0,0,0,0,10.31Z"/><path class="cls-3" d="M312.39,130.59h1.73V147.9h-1.49L303,133.81V147.9h-1.73V130.59h1.51l9.62,14.06Z"/><path class="cls-3" d="M339.09,130.59h1.73V147.9h-1.48l-9.64-14.09V147.9H328V130.59h1.51l9.62,14.06Z"/><path class="cls-3" d="M356.4,146.27h8.41v1.63H354.67V130.59h10v1.63H356.4v6.14h7.66V140H356.4Z"/><path class="cls-3" d="M385.63,148.2a8.79,8.79,0,0,1-6.51-2.6A9,9,0,0,1,390,131.45a8.07,8.07,0,0,1,3.09,3.1l-1.54.89a6.05,6.05,0,0,0-2.42-2.52,6.83,6.83,0,0,0-3.53-.94,7.27,7.27,0,1,0,0,14.54,6.93,6.93,0,0,0,3.53-.94,6.13,6.13,0,0,0,2.42-2.53l1.54.87A8,8,0,0,1,390,147,8.73,8.73,0,0,1,385.63,148.2Z"/><path class="cls-3" d="M416.48,130.59v1.63h-5.31V147.9h-1.73V132.22h-5.32v-1.63Z"/><path class="cls-3" d="M428.85,130.59h1.73V147.9h-1.73Z"/><path class="cls-3" d="M455.55,130.59h1.73V147.9H455.8l-9.64-14.09V147.9h-1.73V130.59h1.5l9.62,14.06Z"/><path class="cls-3" d="M487.67,139.67v.89a7.23,7.23,0,0,1-2.3,5.42,8.48,8.48,0,0,1-6.16,2.22,9,9,0,1,1,0-17.9,8.6,8.6,0,0,1,4.41,1.16,8.19,8.19,0,0,1,3.09,3.09l-1.54.89a6.05,6.05,0,0,0-2.42-2.52,6.84,6.84,0,0,0-3.54-.94,7.27,7.27,0,1,0,0,14.54,7,7,0,0,0,4.68-1.48,5.49,5.49,0,0,0,2-3.74H479v-1.63Z"/><path class="cls-3" d="M529.09,130.59l-6.26,10.21v7.1H521.1v-7.14l-6.23-10.17h2l5.17,8.49,5.14-8.49Z"/><path class="cls-3" d="M554.28,145.59a9,9,0,1,1,2.6-6.34A8.62,8.62,0,0,1,554.28,145.59Zm-11.5-1.19a7.3,7.3,0,0,0,10.29,0,7.43,7.43,0,0,0,0-10.31,7.33,7.33,0,0,0-10.29,0,7.45,7.45,0,0,0,0,10.31Z"/><path class="cls-3" d="M580.44,146.52a7.28,7.28,0,0,1-9.3,0,5.93,5.93,0,0,1-1.78-4.5V130.59h1.74V142a4.38,4.38,0,0,0,1.23,3.28,5.53,5.53,0,0,0,6.93,0,4.38,4.38,0,0,0,1.23-3.28V130.59h1.73V142A5.9,5.9,0,0,1,580.44,146.52Z"/><path class="cls-3" d="M626.21,145.59a9,9,0,1,1,2.6-6.34A8.62,8.62,0,0,1,626.21,145.59Zm-11.5-1.19a7.3,7.3,0,0,0,10.29,0,7.43,7.43,0,0,0,0-10.31,7.33,7.33,0,0,0-10.29,0,7.45,7.45,0,0,0,0,10.31Z"/><path class="cls-3" d="M652.79,130.59h1.73V147.9H653l-9.65-14.09V147.9h-1.73V130.59h1.51l9.62,14.06Z"/><path class="cls-3" d="M670.1,146.27H678v1.63h-9.64V130.59h1.73Z"/><path class="cls-3" d="M690.37,130.59h1.73V147.9h-1.73Z"/><path class="cls-3" d="M717.08,130.59h1.73V147.9h-1.48l-9.65-14.09V147.9H706V130.59h1.51l9.62,14.06Z"/><path class="cls-3" d="M734.39,146.27h8.4v1.63H732.66V130.59h10v1.63h-8.28v6.14h7.66V140h-7.66Z"/></g></g></svg>