<svg xmlns="http://www.w3.org/2000/svg" version="1.1" xmlns:xlink="http://www.w3.org/1999/xlink" xmlns:svgjs="http://svgjs.com/svgjs" width="512" height="512" x="0" y="0" viewBox="0 0 64 64" style="enable-background:new 0 0 512 512" xml:space="preserve" class=""><g><g xmlns="http://www.w3.org/2000/svg" id="Outline"><rect x="8" y="38" width="8" height="2" fill="#5933AA" data-original="#000000" class=""></rect><path d="M59,22V5a3,3,0,0,0-3-3H8A3,3,0,0,0,5,5v6H7V5A1,1,0,0,1,8,4H56a1,1,0,0,1,1,1V22H55V7a1,1,0,0,0-1-1H10A1,1,0,0,0,9,7V34H7V12.951H5V34H3a1,1,0,0,0-1,1v4a4.97,4.97,0,0,0,1.359,3.4A2.775,2.775,0,0,0,2,44.782v2.436a2.783,2.783,0,0,0,2.15,2.7,2.765,2.765,0,0,0-.15.861v2.436a2.765,2.765,0,0,0,.15.861A2.783,2.783,0,0,0,2,56.782v2.436A2.785,2.785,0,0,0,4.782,62H17.218A2.785,2.785,0,0,0,20,59.218V56.782a2.765,2.765,0,0,0-.15-.861,2.783,2.783,0,0,0,2.15-2.7V50.782a2.783,2.783,0,0,0-2.15-2.7,2.765,2.765,0,0,0,.15-.861V44.782A2.74,2.74,0,0,0,19.874,44H32v4H26.782A2.785,2.785,0,0,0,24,50.782v2.436a2.765,2.765,0,0,0,.15.861,2.783,2.783,0,0,0-2.15,2.7v2.436A2.785,2.785,0,0,0,24.782,62H59a3,3,0,0,0,3-3V51H60v8a1,1,0,0,1-1,1H35a1,1,0,0,1-1-1V25a1,1,0,0,1,1-1H59a1,1,0,0,1,1,1V49h2V25A3,3,0,0,0,59,22ZM18,59.218a.783.783,0,0,1-.782.782H4.782A.783.783,0,0,1,4,59.218V56.782A.783.783,0,0,1,4.782,56H6v2H8V56h2v2h2V56h2v2h2V56h1.218a.783.783,0,0,1,.782.782Zm2-6a.783.783,0,0,1-.782.782H6.782A.783.783,0,0,1,6,53.218V50.782A.783.783,0,0,1,6.782,50H8v2h2V50h2v2h2V50h2v2h2V50h1.218a.783.783,0,0,1,.782.782Zm-2-8.436v2.436a.783.783,0,0,1-.782.782H4.782A.783.783,0,0,1,4,47.218V44.782A.783.783,0,0,1,4.782,44H6v2H8V44h2v2h2V44h2v2h2V44h1.218A.783.783,0,0,1,18,44.782ZM17.218,42H7a3,3,0,0,1-3-3V36H23v1a3,3,0,0,0,3,3h6v2ZM32,38H26a1,1,0,0,1-1-1V36h7Zm.184,22h-7.4A.783.783,0,0,1,24,59.218V56.782A.783.783,0,0,1,24.782,56H26v2h2V56h2v2h2v1A2.966,2.966,0,0,0,32.184,60ZM32,54H26.782A.783.783,0,0,1,26,53.218V50.782A.783.783,0,0,1,26.782,50H28v2h2V50h2v4Zm0-29v5H15V10H13V31a1,1,0,0,0,1,1H32v2H11V8H53V22H35A3,3,0,0,0,32,25Z" fill="#5933AA" data-original="#000000" class=""></path><path d="M58,27a1,1,0,0,0-1-1H37a1,1,0,0,0-1,1v6a1,1,0,0,0,1,1H57a1,1,0,0,0,1-1Zm-2,5H38V28H56Z" fill="#5933AA" data-original="#000000" class=""></path><path d="M42,37a1,1,0,0,0-1-1H37a1,1,0,0,0-1,1v4a1,1,0,0,0,1,1h4a1,1,0,0,0,1-1Zm-2,3H38V38h2Z" fill="#5933AA" data-original="#000000" class=""></path><path d="M50,37a1,1,0,0,0-1-1H45a1,1,0,0,0-1,1v4a1,1,0,0,0,1,1h4a1,1,0,0,0,1-1Zm-2,3H46V38h2Z" fill="#5933AA" data-original="#000000" class=""></path><path d="M42,45a1,1,0,0,0-1-1H37a1,1,0,0,0-1,1v4a1,1,0,0,0,1,1h4a1,1,0,0,0,1-1Zm-2,3H38V46h2Z" fill="#5933AA" data-original="#000000" class=""></path><path d="M50,45a1,1,0,0,0-1-1H45a1,1,0,0,0-1,1v4a1,1,0,0,0,1,1h4a1,1,0,0,0,1-1Zm-2,3H46V46h2Z" fill="#5933AA" data-original="#000000" class=""></path><path d="M41,52H37a1,1,0,0,0-1,1v4a1,1,0,0,0,1,1h4a1,1,0,0,0,1-1V53A1,1,0,0,0,41,52Zm-1,4H38V54h2Z" fill="#5933AA" data-original="#000000" class=""></path><path d="M49,52H45a1,1,0,0,0-1,1v4a1,1,0,0,0,1,1h4a1,1,0,0,0,1-1V53A1,1,0,0,0,49,52Zm-1,4H46V54h2Z" fill="#5933AA" data-original="#000000" class=""></path><path d="M58,37a1,1,0,0,0-1-1H53a1,1,0,0,0-1,1v4a1,1,0,0,0,1,1h4a1,1,0,0,0,1-1Zm-2,3H54V38h2Z" fill="#5933AA" data-original="#000000" class=""></path><path d="M57,44H53a1,1,0,0,0-1,1V57a1,1,0,0,0,1,1h4a1,1,0,0,0,1-1V45A1,1,0,0,0,57,44ZM56,56H54V46h2Z" fill="#5933AA" data-original="#000000" class=""></path><path d="M46.242,11.03l-4-1-.484,1.94,1.585.4L32.167,18.753l-3.46-3.46a1,1,0,0,0-1.222-.15l-10,6,1.03,1.714,9.33-5.6,3.448,3.448a1,1,0,0,0,1.2.161l11.966-6.837-.432,1.727,1.94.484,1-4A1,1,0,0,0,46.242,11.03Z" fill="#5933AA" data-original="#000000" class=""></path><rect x="17" y="10" width="3" height="2" fill="#5933AA" data-original="#000000" class=""></rect><rect x="22" y="10" width="7" height="2" fill="#5933AA" data-original="#000000" class=""></rect></g></g></svg>