<svg xmlns="http://www.w3.org/2000/svg" version="1.1" xmlns:xlink="http://www.w3.org/1999/xlink" xmlns:svgjs="http://svgjs.com/svgjs" width="512" height="512" x="0" y="0" viewBox="0 0 512 512" style="enable-background:new 0 0 512 512" xml:space="preserve" class=""><g><path xmlns="http://www.w3.org/2000/svg" d="m344.923 80.67a74.435 74.435 0 1 0 74.435 74.43 74.52 74.52 0 0 0 -74.435-74.43zm0 132.87a58.435 58.435 0 1 1 58.435-58.44 58.5 58.5 0 0 1 -58.435 58.44zm139.8-23.023a15.328 15.328 0 0 0 15.309-15.31v-40.207a15.328 15.328 0 0 0 -15.309-15.31h-25.79a118.733 118.733 0 0 0 -8.36-20.159l18.24-18.24a15.329 15.329 0 0 0 0-21.652l-28.427-28.425a15.332 15.332 0 0 0 -21.652 0l-18.24 18.241a118.7 118.7 0 0 0 -20.159-8.36v-25.785a15.327 15.327 0 0 0 -15.31-15.31h-40.2a15.327 15.327 0 0 0 -15.309 15.31v25.79a118.709 118.709 0 0 0 -20.16 8.36l-18.244-18.245a15.327 15.327 0 0 0 -21.651 0l-28.428 28.428a15.326 15.326 0 0 0 0 21.65l18.241 18.241a118.586 118.586 0 0 0 -8.36 20.16h-25.787a15.329 15.329 0 0 0 -15.31 15.306v40.2a15.329 15.329 0 0 0 15.31 15.31h25.787a118.728 118.728 0 0 0 8.359 20.159l-18.24 18.24a15.329 15.329 0 0 0 0 21.652l28.427 28.439a15.329 15.329 0 0 0 21.651 0l18.242-18.24a118.7 118.7 0 0 0 20.159 8.36v25.78a15.327 15.327 0 0 0 15.309 15.31h40.2a15.327 15.327 0 0 0 15.31-15.31v-25.785a118.709 118.709 0 0 0 20.16-8.36l18.243 18.245a15.328 15.328 0 0 0 21.652 0l28.427-28.428a15.326 15.326 0 0 0 0-21.65l-18.241-18.241a118.59 118.59 0 0 0 8.361-20.16zm-39.6-9.963a102.6 102.6 0 0 1 -11.36 27.4 8 8 0 0 0 1.214 9.753l22.036 22.037-27.453 27.449-22.036-22.036a8 8 0 0 0 -9.753-1.214 102.76 102.76 0 0 1 -27.4 11.362 8 8 0 0 0 -6.036 7.755v31.151h-38.823v-31.151a8 8 0 0 0 -6.036-7.755 102.734 102.734 0 0 1 -27.4-11.362 8 8 0 0 0 -9.753 1.214l-22.037 22.036-27.451-27.451 22.037-22.036a8 8 0 0 0 1.214-9.755 102.667 102.667 0 0 1 -11.361-27.4 8 8 0 0 0 -7.755-6.036h-31.153v-38.821h31.153a8 8 0 0 0 7.756-6.037 102.6 102.6 0 0 1 11.36-27.4 8 8 0 0 0 -1.214-9.753l-22.036-22.035 27.451-27.451 22.037 22.036a8 8 0 0 0 9.754 1.214 102.72 102.72 0 0 1 27.4-11.362 8 8 0 0 0 6.036-7.755v-31.151h38.822v31.151a8 8 0 0 0 6.036 7.755 102.734 102.734 0 0 1 27.4 11.362 8 8 0 0 0 9.753-1.214l22.037-22.037 27.451 27.452-22.038 22.036a8 8 0 0 0 -1.214 9.755 102.7 102.7 0 0 1 11.361 27.4 8 8 0 0 0 7.755 6.036h31.152v38.823h-31.152a8 8 0 0 0 -7.756 6.035zm13.822 116.03c-.063.035-.127.07-.19.107-21.18 12.33-41.491 28.413-60.371 47.807-9.762 9.1-18.1 12.292-28.743 11.031-37.988-4.692-81.411-16.492-129.067-35.073-56.847-24.962-108.833-17.673-154.517 21.658a33.979 33.979 0 0 1 -4.278 2.868l-.948-3.538a8 8 0 0 0 -9.8-5.657l-65.101 17.443a8 8 0 0 0 -5.658 9.8l38.328 143.04a8 8 0 0 0 9.8 5.658l65.1-17.445a8 8 0 0 0 5.657-9.8l-2.6-9.7c9.39-4.288 19.5-9.025 30.128-14.113 7.626-2.2 31.72-1.934 107.668 22.384l.246.074q25.92 7.395 47.39 7.391c22.359 0 41-6.021 55.7-18.043 21.168-11.307 78.829-47.933 90.479-58.108 10.25-8.954 29.824-35.284 59.843-80.492a8.057 8.057 0 0 0 .426-.723c5.589-10.7 4.486-21.074-3.026-28.447-11.676-11.461-37.221-13.17-46.468-8.122zm-406.96 197.616-34.185-127.585 49.646-13.3 34.186 127.585zm442.451-168.8c-35.709 53.758-50.594 71.5-56.791 76.918-10.948 9.562-68.695 46.136-88.154 56.4a7.9 7.9 0 0 0 -1.4.94c-19.8 16.56-49.736 19.292-88.98 8.12-84.124-26.926-107.548-25.553-117.845-22.175a8.054 8.054 0 0 0 -.965.386c-9.814 4.7-19.179 9.1-27.942 13.121l-26.295-98.13a67.788 67.788 0 0 0 10.43-6.741c41.225-35.49 86.3-41.732 137.791-19.069.1.046.209.089.315.131 48.13 18.778 92.22 30.837 131.086 35.855 8.46 6.209 9.968 9.98 9.8 10.849-.01.054-1.669 5.471-24.187 10.607-7.735 1.766-32.4-2.846-52.225-6.55-16.917-3.163-32.9-6.149-44-6.738-.184-.01-.369-.013-.554-.011-12.289.2-21.564 2.387-28.357 6.684a8 8 0 0 0 8.555 13.522c4.075-2.58 10.913-4.031 19.784-4.2 10.065.574 26.11 3.572 41.631 6.473 23.018 4.3 39.473 7.193 50.476 7.193a37.608 37.608 0 0 0 8.246-.77c14.3-3.262 33.614-9.208 36.332-23.143 1.109-5.68-.883-10.858-3.959-15.234 7.618-2.36 14.851-6.882 22.22-13.781.092-.085.182-.173.269-.263 17.844-18.351 36.979-33.541 56.88-45.152 4.191-1.787 21.952-.529 27.851 5.736.964 1.022 2.952 3.128-.012 9.022z" fill="#5933AA" data-original="#000000" class=""></path></g></svg>