<svg xmlns="http://www.w3.org/2000/svg" version="1.1" xmlns:xlink="http://www.w3.org/1999/xlink" xmlns:svgjs="http://svgjs.com/svgjs" width="512" height="512" x="0" y="0" viewBox="0 0 512 512" style="enable-background:new 0 0 512 512" xml:space="preserve" class=""><g><path xmlns="http://www.w3.org/2000/svg" d="M504,403.38H482.645V147.854a34.037,34.037,0,0,0-34-34H383.7l4-5.894a8,8,0,0,0-.961-10.152L354.752,65.816a8,8,0,0,0-10.151-.962l-22.54,15.311a132.845,132.845,0,0,0-30.472-12.637L286.48,40.781a8,8,0,0,0-7.858-6.5H233.378a8,8,0,0,0-7.858,6.5l-5.109,26.747A132.829,132.829,0,0,0,189.94,80.165L167.4,64.854a8,8,0,0,0-10.151.962L125.255,97.808a8,8,0,0,0-.961,10.152l4,5.894H63.355a34.037,34.037,0,0,0-34,34V403.38H8a8,8,0,0,0-8,8v32.338a34.038,34.038,0,0,0,34,34H478a34.038,34.038,0,0,0,34-34V411.38A8,8,0,0,0,504,403.38ZM448.645,129.854a18.021,18.021,0,0,1,18,18V403.38h-14V151.854a8,8,0,0,0-8-8H379.019A133.305,133.305,0,0,0,372.4,130.5l.439-.647ZM198.161,419.38H313.839v13.169H198.161Zm-122.806-16V159.854h51.939c-.106.373-.224.743-.327,1.118l-26.747,5.11a8,8,0,0,0-6.5,7.857v45.244a8,8,0,0,0,6.5,7.857l26.747,5.11A132.8,132.8,0,0,0,139.6,262.621l-15.31,22.54a8,8,0,0,0,.961,10.152l31.993,31.993a8,8,0,0,0,10.151.961l22.54-15.31a132.793,132.793,0,0,0,30.472,12.637l5.109,26.747a8,8,0,0,0,7.858,6.5h45.244a8,8,0,0,0,7.858-6.5l5.109-26.746a132.814,132.814,0,0,0,30.472-12.638l22.54,15.31a8.006,8.006,0,0,0,10.151-.961l31.993-31.993a8,8,0,0,0,.961-10.152L372.4,262.622a132.764,132.764,0,0,0,12.636-30.472l26.748-5.11a8,8,0,0,0,6.5-7.857V173.939a8,8,0,0,0-6.5-7.857l-26.747-5.11c-.1-.375-.22-.745-.327-1.118h51.939V403.38ZM163.883,81.809,185.16,96.261a8.005,8.005,0,0,0,8.719.176,116.961,116.961,0,0,1,35.252-14.62,8,8,0,0,0,6.041-6.29l4.822-25.245h32.012l4.822,25.245a8,8,0,0,0,6.04,6.289,116.937,116.937,0,0,1,35.252,14.62,8,8,0,0,0,8.72-.175l21.277-14.452,22.635,22.634L356.3,125.721a8,8,0,0,0-.176,8.719,116.91,116.91,0,0,1,14.618,35.251,8,8,0,0,0,6.29,6.041l25.246,4.824v32.01l-25.246,4.824a8,8,0,0,0-6.289,6.039,116.942,116.942,0,0,1-14.619,35.253,8,8,0,0,0,.176,8.719l14.451,21.277-22.635,22.635-21.276-14.452a8,8,0,0,0-8.72-.175,116.944,116.944,0,0,1-35.252,14.619,8,8,0,0,0-6.041,6.29l-4.822,25.245H239.994L235.172,317.6a8,8,0,0,0-6.04-6.29,116.929,116.929,0,0,1-35.253-14.618,8,8,0,0,0-8.72.174l-21.276,14.452-22.635-22.635L155.7,267.4a8,8,0,0,0,.176-8.719,116.937,116.937,0,0,1-14.618-35.251,8,8,0,0,0-6.29-6.041l-25.246-4.824v-32.01l25.246-4.824a8,8,0,0,0,6.29-6.04,116.864,116.864,0,0,1,14.618-35.251,8,8,0,0,0-.176-8.72l-14.451-21.278ZM45.355,147.854a18.021,18.021,0,0,1,18-18h75.572c.077,0,.153-.01.23-.012l.447.658a133.011,133.011,0,0,0-6.624,13.354H67.355a8,8,0,0,0-8,8V403.38h-14ZM496,443.718a18.021,18.021,0,0,1-18,18H34a18.021,18.021,0,0,1-18-18V419.38H182.161v13.341a15.847,15.847,0,0,0,15.829,15.828H314.01a15.847,15.847,0,0,0,15.829-15.828V419.38H496ZM256,286.988a90.427,90.427,0,1,0-90.427-90.427A90.529,90.529,0,0,0,256,286.988Zm0-164.854a74.427,74.427,0,1,1-74.427,74.427A74.51,74.51,0,0,1,256,122.134Z" fill="#5933AA" data-original="#000000" class=""></path></g></svg>