<svg xmlns="http://www.w3.org/2000/svg" version="1.1" xmlns:xlink="http://www.w3.org/1999/xlink" xmlns:svgjs="http://svgjs.com/svgjs" width="512" height="512" x="0" y="0" viewBox="0 0 512 512" style="enable-background:new 0 0 512 512" xml:space="preserve" class=""><g><g xmlns="http://www.w3.org/2000/svg"><g><path d="m441.87 101.6c4.143 0 7.5-3.357 7.5-7.5v-54.27c0-21.963-17.868-39.83-39.83-39.83h-307.08c-21.962 0-39.83 17.867-39.83 39.83v432.34c0 21.963 17.868 39.83 39.83 39.83h307.08c21.962 0 39.83-17.867 39.83-39.83v-343.07c0-4.143-3.357-7.5-7.5-7.5s-7.5 3.357-7.5 7.5v343.07c0 13.691-11.139 24.83-24.83 24.83h-307.08c-13.691 0-24.83-11.139-24.83-24.83v-432.34c0-13.691 11.139-24.83 24.83-24.83h55.13v14.72c0 .889.088 1.756.215 2.61h-45.245c-9.705 0-17.6 7.896-17.6 17.6v304.4c0 4.143 3.358 7.5 7.5 7.5s7.5-3.357 7.5-7.5v-304.4c0-1.434 1.167-2.6 2.6-2.6h65.23v10.68c0 9.705 7.896 17.601 17.6 17.601h19c4.142 0 7.5-3.357 7.5-7.5s-3.358-7.5-7.5-7.5h-19c-1.434 0-2.6-1.167-2.6-2.601v-14.14c0-6.363-5.177-11.54-11.54-11.54h-6.06c-1.434 0-2.6-1.171-2.6-2.61v-14.72h166.82v14.72c0 1.439-1.167 2.61-2.601 2.61h-6.06c-6.363 0-11.54 5.177-11.54 11.54v14.14c0 1.434-1.166 2.601-2.6 2.601h-67.22c-4.142 0-7.5 3.357-7.5 7.5s3.358 7.5 7.5 7.5h67.22c9.704 0 17.6-7.896 17.6-17.601v-10.68h65.23c1.434 0 2.6 1.166 2.6 2.6v412.14c0 1.434-1.166 2.6-2.6 2.6h-286.879c-1.434 0-2.6-1.166-2.6-2.6v-72.74c0-4.143-3.358-7.5-7.5-7.5s-7.5 3.357-7.5 7.5v72.74c0 9.704 7.896 17.6 17.6 17.6h286.88c9.704 0 17.6-7.896 17.6-17.6v-412.14c0-9.704-7.896-17.6-17.6-17.6h-45.246c.128-.854.215-1.721.215-2.61v-14.72h55.13c13.691 0 24.83 11.139 24.83 24.83v54.27c.001 4.142 3.359 7.5 7.501 7.5z" fill="#5933AA" data-original="#000000" class=""></path><path d="m256 90.915c-48.139 0-87.303 39.164-87.303 87.303s39.164 87.303 87.303 87.303 87.303-39.164 87.303-87.303-39.164-87.303-87.303-87.303zm-40.988 146.82v-21.853c0-13.688 11.137-24.825 24.825-24.825h13.818c.776.052 1.556.088 2.345.088s1.569-.036 2.345-.088h13.819c13.688 0 24.825 11.137 24.825 24.825v21.853c-11.658 8.054-25.778 12.786-40.988 12.786-15.211 0-29.331-4.732-40.989-12.786zm42.723-61.678h-3.469c-10.093-.883-18.04-9.369-18.04-19.687 0-10.903 8.871-19.774 19.774-19.774s19.774 8.871 19.774 19.774c0 10.318-7.947 18.804-18.039 19.687zm54.253 47.85v-8.025c0-18.043-12.065-33.313-28.548-38.189 4.59-5.893 7.334-13.292 7.334-21.323 0-19.175-15.6-34.774-34.774-34.774s-34.774 15.6-34.774 34.774c0 8.031 2.744 15.429 7.334 21.323-16.483 4.876-28.547 20.146-28.547 38.189v8.026c-10.19-12.463-16.315-28.373-16.315-45.69 0-39.868 32.435-72.303 72.303-72.303s72.303 32.435 72.303 72.303c-.001 17.317-6.126 33.226-16.316 45.689z" fill="#5933AA" data-original="#000000" class=""></path><path d="m127.28 288.325c0 4.143 3.358 7.5 7.5 7.5h64.65c4.142 0 7.5-3.357 7.5-7.5s-3.358-7.5-7.5-7.5h-64.65c-4.142 0-7.5 3.358-7.5 7.5z" fill="#5933AA" data-original="#000000" class=""></path><path d="m127.28 338.42c0 8.592 6.99 15.581 15.582 15.581h88.894c8.592 0 15.582-6.989 15.582-15.581v-16.162c0-8.592-6.99-15.582-15.582-15.582h-88.894c-8.592 0-15.582 6.99-15.582 15.582zm15-16.162c0-.321.261-.582.582-.582h88.894c.321 0 .582.261.582.582v16.162c0 .32-.261.581-.582.581h-88.894c-.321 0-.582-.261-.582-.581z" fill="#5933AA" data-original="#000000" class=""></path><path d="m134.78 379.853h64.65c4.142 0 7.5-3.357 7.5-7.5s-3.358-7.5-7.5-7.5h-64.65c-4.142 0-7.5 3.357-7.5 7.5s3.358 7.5 7.5 7.5z" fill="#5933AA" data-original="#000000" class=""></path><path d="m127.28 422.447c0 8.592 6.99 15.582 15.582 15.582h88.894c8.592 0 15.582-6.99 15.582-15.582v-16.162c0-8.592-6.99-15.581-15.582-15.581h-88.894c-8.592 0-15.582 6.989-15.582 15.581zm15-16.162c0-.32.261-.581.582-.581h88.894c.321 0 .582.261.582.581v16.162c0 .321-.261.582-.582.582h-88.894c-.321 0-.582-.261-.582-.582z" fill="#5933AA" data-original="#000000" class=""></path><path d="m336.813 280.825h-64.65c-4.143 0-7.5 3.357-7.5 7.5s3.357 7.5 7.5 7.5h64.65c4.143 0 7.5-3.357 7.5-7.5s-3.357-7.5-7.5-7.5z" fill="#5933AA" data-original="#000000" class=""></path><path d="m384.72 322.258c0-8.592-6.989-15.582-15.581-15.582h-88.895c-8.592 0-15.581 6.99-15.581 15.582v16.162c0 8.592 6.989 15.581 15.581 15.581h88.895c8.592 0 15.581-6.989 15.581-15.581zm-15 16.162c0 .32-.261.581-.581.581h-88.895c-.32 0-.581-.261-.581-.581v-16.162c0-.321.261-.582.581-.582h88.895c.32 0 .581.261.581.582z" fill="#5933AA" data-original="#000000" class=""></path><path d="m336.813 379.853c4.143 0 7.5-3.357 7.5-7.5s-3.357-7.5-7.5-7.5h-64.65c-4.143 0-7.5 3.357-7.5 7.5s3.357 7.5 7.5 7.5z" fill="#5933AA" data-original="#000000" class=""></path><path d="m264.663 422.447c0 8.592 6.989 15.582 15.581 15.582h88.895c8.592 0 15.581-6.99 15.581-15.582v-16.162c0-8.592-6.989-15.581-15.581-15.581h-88.895c-8.592 0-15.581 6.989-15.581 15.581zm15-16.162c0-.32.261-.581.581-.581h88.895c.32 0 .581.261.581.581v16.162c0 .321-.261.582-.581.582h-88.895c-.32 0-.581-.261-.581-.582z" fill="#5933AA" data-original="#000000" class=""></path></g></g></g></svg>