<svg xmlns="http://www.w3.org/2000/svg" version="1.1" xmlns:xlink="http://www.w3.org/1999/xlink" xmlns:svgjs="http://svgjs.com/svgjs" width="512" height="512" x="0" y="0" viewBox="0 0 512.002 512.002" style="enable-background:new 0 0 512 512" xml:space="preserve" class=""><g><g xmlns="http://www.w3.org/2000/svg"><path d="m500.235 210.166-29.965-28.271 14.783-28.975c6.752-13.232 1.479-29.491-11.753-36.244l-40.958-20.9c-3.688-1.881-8.206-.418-10.09 3.271-1.883 3.69-.418 8.207 3.271 10.09l40.958 20.9c5.865 2.993 8.202 10.2 5.21 16.065l-66.402 130.15-29.698 18.088 72.509-142.116c1.883-3.689.418-8.207-3.271-10.089l-140.61-71.753c-1.772-.903-3.832-1.067-5.723-.454-1.893.614-3.463 1.954-4.367 3.726l-123.327 241.721-15.617-9.511 130.053-254.908c1.449-2.841 3.919-4.948 6.953-5.932 3.031-.983 6.269-.728 9.109.723l93.164 47.541c3.688 1.882 8.206.417 10.09-3.271 1.883-3.69.418-8.207-3.271-10.09l-85.138-43.445-23.042-21.74c-10.075-9.505-23.252-14.74-37.103-14.74-13.739-.125-28.518 5.943-38.62 16.172-2.661-5.66-8.916-11.636-15.939-13.853-6.854-2.222-14.163-1.643-20.583 1.632l-165.493 84.451c-13.249 6.761-18.529 23.042-11.768 36.293l32.091 62.9-23.922 22.57c-7.477 7.055-11.765 16.997-11.765 27.276v252.06c0 12.407 10.094 22.5 22.5 22.5h467c12.406 0 22.5-10.093 22.5-22.5v-252.06c0-10.28-4.288-20.221-11.766-27.277zm-393.062 220.338c-2.469-3.326-7.168-4.02-10.492-1.551l-81.675 60.639c0-.031-.005-.06-.005-.091v-251.447l186.125 113.353-76.321 56.665c-3.326 2.469-4.021 7.167-1.551 10.493 2.469 3.326 7.168 4.02 10.492 1.551l96.924-71.962c15.154-11.25 35.516-11.25 50.67 0l200.482 148.849h-451.633l75.433-56.005c3.326-2.47 4.021-7.168 1.551-10.494zm29.505-224.406c2.185-3.519 1.104-8.143-2.416-10.328-3.519-2.187-8.145-1.104-10.328 2.416-6.34 10.211-10.362 21.267-12.037 32.511l-54.507-106.836 127.515-65.07 39.749 77.908-10.503 20.586c-18.538-3.095-37.837-.116-54.955 8.618-2.915 1.488-5.771 3.145-8.49 4.924-3.465 2.269-4.436 6.918-2.166 10.383 1.439 2.198 3.836 3.393 6.281 3.393 1.409 0 2.835-.397 4.102-1.226 2.27-1.486 4.655-2.87 7.092-4.113 12.788-6.525 27.02-9.21 40.92-7.836l-8.506 16.672c-8.45.335-16.868 2.542-24.598 6.486-27.234 13.898-38.998 45.577-26.222 70.619 1.785 3.499 3.985 6.726 6.553 9.659l-9.865 19.336-12.306-24.12c-9.348-20.376-7.664-44.089 4.687-63.982zm25.118 53.801c-10.215-17.407-1.552-41.6 18.852-51.951 3.04-1.551 6.22-2.721 9.46-3.541zm65.444-22.139c7.545-16.652 23.043-30.08 41.437-35.546 17.917-5.371 37.183-3.532 54.247 5.177 34.36 17.534 49.15 57.899 33.794 90.938l-5.557 10.891-53.34 32.487-7.539-5.597c-10.716-7.957-23.358-11.746-35.913-11.384-29.586-19.146-41.214-56.494-27.129-86.966zm83.576 113.595 186.185-113.396v251.543c0 .028-.004.055-.004.083zm152.352-155.539 26.773 25.26c.768.725 1.476 1.504 2.129 2.323l-62.349 37.974zm-159.088-108.664 127.25 64.935-54.451 106.726c-3.943-26.58-20.736-51.309-47.137-64.782-20.523-10.472-43.738-12.669-65.373-6.184-5.155 1.545-10.064 3.553-14.704 5.96zm-96.983 190.09c.624 4.202 1.56 8.392 2.843 12.536 4.652 15.03 13.344 28.438 25.041 38.951-4.628 1.836-9.086 4.288-13.25 7.38l-7.607 5.648-30.473-18.558zm22.094-251.589c7.28-6.869 16.802-10.651 26.81-10.651s19.529 3.783 26.81 10.651l5.251 4.955c-6.031 1.704-12.878 6.955-16.185 13.531l-20.115 39.425-27.279-53.469zm-207.007 76.112 165.493-84.45c2.85-1.454 6.095-1.711 9.138-.725 3.044.987 5.521 3.1 6.975 5.95l39.554 77.527-10.27 20.129-38.215-74.903c-.904-1.771-2.475-3.112-4.367-3.726s-3.951-.451-5.723.454l-140.877 71.888c-3.689 1.883-5.154 6.4-3.271 10.089.021.041 82.97 162.624 82.97 162.624l-29.8-18.148-76.833-150.595c-3.002-5.883-.657-13.112 5.226-16.114zm-.124 119.312 20.731-19.559 26.57 52.078-49.48-30.134c.666-.842 1.391-1.642 2.179-2.385z" fill="#5933AA" data-original="#000000" class=""></path><path d="m93.72 130.047c-1.882-3.69-6.401-5.156-10.089-3.272-3.689 1.882-5.155 6.399-3.272 10.089l17.764 34.817c1.325 2.598 3.957 4.093 6.687 4.093 1.146 0 2.312-.264 3.402-.821 3.689-1.882 5.155-6.399 3.272-10.089z" fill="#5933AA" data-original="#000000" class=""></path><path d="m187.097 126.279c1.325 2.598 3.957 4.093 6.687 4.093 1.146 0 2.312-.264 3.402-.821 3.689-1.882 5.155-6.399 3.272-10.089l-17.764-34.817c-1.882-3.689-6.4-5.155-10.089-3.272-3.689 1.882-5.155 6.399-3.272 10.089z" fill="#5933AA" data-original="#000000" class=""></path><path d="m380.617 203.089c1.092.557 2.255.821 3.402.821 2.729 0 5.361-1.495 6.687-4.093l17.73-34.751c1.883-3.69.418-8.207-3.272-10.089-3.688-1.882-8.207-.417-10.089 3.272l-17.73 34.751c-1.883 3.689-.418 8.206 3.272 10.089z" fill="#5933AA" data-original="#000000" class=""></path><path d="m291.811 157.771c1.092.557 2.255.821 3.402.821 2.729 0 5.361-1.495 6.687-4.093l17.73-34.752c1.883-3.69.418-8.207-3.272-10.089-3.689-1.882-8.207-.418-10.089 3.272l-17.73 34.752c-1.884 3.69-.419 8.207 3.272 10.089z" fill="#5933AA" data-original="#000000" class=""></path><path d="m280.462 317.829c.658.179 1.319.264 1.971.264 3.301 0 6.326-2.197 7.233-5.537 1.085-3.997-1.275-8.118-5.272-9.203-2.982-.81-5.912-1.944-8.708-3.371-19.824-10.116-28.632-32.692-19.635-50.327 4.295-8.417 12.007-14.503 21.716-17.135 9.976-2.704 20.825-1.461 30.55 3.501 19.824 10.116 28.632 32.692 19.635 50.326-3.108 6.093-8.067 11.029-14.34 14.276-3.679 1.904-5.117 6.43-3.213 10.108 1.903 3.678 6.429 5.115 10.108 3.213 9.07-4.696 16.266-11.881 20.806-20.78 12.757-25.001 1.013-56.629-26.178-70.505-13.049-6.658-27.716-8.299-41.293-4.617-13.847 3.754-24.91 12.56-31.152 24.796-12.757 25.001-1.013 56.629 26.178 70.505 3.715 1.897 7.616 3.406 11.594 4.486z" fill="#5933AA" data-original="#000000" class=""></path><path d="m140.411 101.102c-14.94 0-27.04 12.11-27.04 27.04 0 14.94 12.1 27.04 27.04 27.04 14.93 0 27.04-12.1 27.04-27.04 0-14.93-12.11-27.04-27.04-27.04zm0 39.07c-6.65 0-12.03-5.38-12.03-12.03 0-6.64 5.38-12.03 12.03-12.03 6.64 0 12.03 5.39 12.03 12.03 0 6.65-5.39 12.03-12.03 12.03z" fill="#5933AA" data-original="#000000" class=""></path><path d="m348.487 129.333c-14.94 0-27.04 12.11-27.04 27.04 0 14.94 12.1 27.04 27.04 27.04 14.93 0 27.04-12.1 27.04-27.04 0-14.929-12.11-27.04-27.04-27.04zm0 39.07c-6.65 0-12.03-5.38-12.03-12.03 0-6.64 5.38-12.03 12.03-12.03 6.64 0 12.03 5.39 12.03 12.03 0 6.65-5.39 12.03-12.03 12.03z" fill="#5933AA" data-original="#000000" class=""></path></g></g></svg>