<svg xmlns="http://www.w3.org/2000/svg" version="1.1" xmlns:xlink="http://www.w3.org/1999/xlink" xmlns:svgjs="http://svgjs.com/svgjs" width="512" height="512" x="0" y="0" viewBox="0 0 52 60" style="enable-background:new 0 0 512 512" xml:space="preserve" class=""><g><g xmlns="http://www.w3.org/2000/svg" id="Page-1" fill="none" fill-rule="evenodd"><g id="011---Approved-Cleaning" fill="rgb(0,0,0)" fill-rule="nonzero" transform="translate(0 -1)"><path id="Shape" d="m17.206 34.467c-1.3162819.8343524-2.8142205 1.3392679-4.367 1.472-.473739-1.7311054-2.0442512-2.9334328-3.839-2.939h-5c-2.209139 0-4 1.790861-4 4v20c0 2.209139 1.790861 4 4 4h5c1.8104333-.0071388 3.39035-1.2294004 3.852-2.98.8491017.044603 1.6813312.2545286 2.45.618.386.183.755.4 1.125.614.5520563.3367105 1.1271464.6341133 1.721.89 1.5483543.5908661 3.1949103.8820337 4.852.858h18c1.4787554-.0007379 2.8364648-.8172556 3.5303277-2.1231163.6938628-1.3058608.6106665-2.8879969-.2163277-4.1138837 1.1723009-.4034418 2.0898053-1.3298886 2.4818582-2.5060473.3920529-1.1761586.2139174-2.4678187-.4818582-3.4939527 1.4699953-.5031238 2.5118225-1.8169719 2.6666781-3.3629471s-.6056795-3.0403604-1.9466781-3.8250529c.6198307-.7150416.9625898-1.628711.966-2.575 0-2.209139-1.790861-4-4-4h-12.632c1.564-2.978 4.406-9.635 1.64-14.477-1.217-2.127-3.76-3.791-6.461-2.415-2.818 1.432-2.187 4.261-1.883 5.619.775 3.484-1.734 7.098-7.458 10.74zm-8.206 24.533h-5c-1.1045695 0-2-.8954305-2-2v-20c0-1.1045695.8954305-2 2-2h5c1.1045695 0 2 .8954305 2 2v20c0 1.1045695-.8954305 2-2 2zm17.616-35.708c-.452-2.023-.249-2.849.838-3.4 1.764-.9 3.231.6 3.818 1.625 2.989 5.234-2.411 13.861-2.466 13.948-.1949706.3078901-.2070105.6974675-.0314243 1.0168095.1755861.3193421.5109936.5178801.8754243.5181905h14.35c1.1045695 0 2 .8954305 2 2s-.8954305 2-2 2h-6c-.5522847 0-1 .4477153-1 1s.4477153 1 1 1h7c1.1045695 0 2 .8954305 2 2s-.8954305 2-2 2h-7c-.5522847 0-1 .4477153-1 1s.4477153 1 1 1h5c1.1045695 0 2 .8954305 2 2s-.8954305 2-2 2h-5c-.5522847 0-1 .4477153-1 1s.4477153 1 1 1h3c1.1045695 0 2 .8954305 2 2s-.8954305 2-2 2h-18c-1.3994236.0244458-2.790753-.2171704-4.1-.712-.5067714-.221097-.9976136-.4770433-1.469-.766-.416-.242-.834-.482-1.267-.689-.9935262-.4673219-2.0677541-.7389346-3.164-.8v-18.082c1.8788757-.1664529 3.689819-.7839369 5.279-1.8 6.51-4.138 9.315-8.465 8.337-12.859z" fill="#ffffff" data-original="#000000" class=""></path><path id="Shape" d="m38.01 1.971v.021.008c0 .368-.091 9-8.009 9-.5522847 0-1 .4477153-1 1s.4477153 1 1 1c7.887 0 8.008 8.634 8.009 9-.0074558.5522847.4342153 1.0060441.9865 1.0135.5522847.0074558 1.0060441-.4342153 1.0135-.9865v-.021-.006c0-.368.091-9 8.01-9 .5522847 0 1-.4477153 1-1s-.4477153-1-1-1c-7.888 0-8.008-8.634-8.01-9 .0074558-.55228473-.4342153-1.00604412-.9865-1.01349996s-1.0060441.43421523-1.0135.98649996zm5.45 10.029c-2.0477501 1.0802193-3.6305499 2.8710483-4.451 5.036-.8199684-2.1652424-2.4029022-3.956223-4.451-5.036 2.0480978-1.079777 3.6310316-2.87075761 4.451-5.036.8204501 2.16495172 2.4032499 3.9557807 4.451 5.036z" fill="#ffffff" data-original="#000000" class=""></path><path id="Shape" d="m13 14v-.006c-.0016569-.5522847-.4507153-.9986568-1.003-.997-.5522847.0016569-.9986568.4507153-.997 1.003 0 .245-.084 6-5 6-.55228475 0-1 .4477153-1 1s.44771525 1 1 1c4.916 0 5 5.757 5 6v.006c.0016569.5522847.4507153.9986568 1.003.997.5522847-.0016569.9986568-.4507153.997-1.003 0-.245.084-6 5-6 .5522847 0 1-.4477153 1-1s-.4477153-1-1-1c-4.916 0-5-5.757-5-6zm1.344 7c-1.0125793.6754027-1.8227409 1.6131025-2.344 2.713-.5212591-1.0998975-1.3314207-2.0375973-2.344-2.713 1.0127803-.6751749 1.8229954-1.6129367 2.344-2.713.5210046 1.1000633 1.3312197 2.0378251 2.344 2.713z" fill="#ffffff" data-original="#000000" class=""></path><path id="Shape" d="m47 22c-.5522847 0-1 .4477153-1 1v2c0 .5522847.4477153 1 1 1s1-.4477153 1-1v-2c0-.5522847-.4477153-1-1-1z" fill="#ffffff" data-original="#000000" class=""></path><path id="Shape" d="m47 32c.5522847 0 1-.4477153 1-1v-2c0-.5522847-.4477153-1-1-1s-1 .4477153-1 1v2c0 .5522847.4477153 1 1 1z" fill="#ffffff" data-original="#000000" class=""></path><path id="Shape" d="m49 28h2c.5522847 0 1-.4477153 1-1s-.4477153-1-1-1h-2c-.5522847 0-1 .4477153-1 1s.4477153 1 1 1z" fill="#ffffff" data-original="#000000" class=""></path><path id="Shape" d="m45 28c.5522847 0 1-.4477153 1-1s-.4477153-1-1-1h-2c-.5522847 0-1 .4477153-1 1s.4477153 1 1 1z" fill="#ffffff" data-original="#000000" class=""></path><path id="Shape" d="m21.793 10.207 1.5 1.5c.3923789.3789722 1.0160848.3735524 1.4018186-.0121814s.3911536-1.0094397.0121814-1.4018186l-1.5-1.5c-.2510745-.25995658-.6228779-.3642126-.9725073-.27269716-.3496295.09151544-.6226744.3645604-.7141899.71418984-.0915154.34962943.0127406.72143285.2726972.97250732z" fill="#ffffff" data-original="#000000" class=""></path><path id="Shape" d="m18.793 7.207c.3923789.37897221 1.0160848.37355237 1.4018186-.01218142.3857338-.3857338.3911536-1.00943969.0121814-1.40181858l-1.5-1.5c-.3923789-.37897221-1.0160848-.37355237-1.4018186.01218142-.3857338.3857338-.3911536 1.00943969-.0121814 1.40181858z" fill="#ffffff" data-original="#000000" class=""></path><path id="Shape" d="m17.293 11.707c.3904999.3903819 1.0235001.3903819 1.414 0l1.5-1.5c.2599566-.25107447.3642126-.62287789.2726972-.97250732-.0915155-.34962944-.3645604-.6226744-.7141899-.71418984-.3496294-.09151544-.7214328.01274058-.9725073.27269716l-1.5 1.5c-.3903819.3904999-.3903819 1.0235001 0 1.414z" fill="#ffffff" data-original="#000000" class=""></path><path id="Shape" d="m22.5 7.5c.2651948-.00005664.5195073-.10545063.707-.293l1.5-1.5c.2599566-.25107447.3642126-.62287789.2726972-.97250732-.0915155-.34962944-.3645604-.6226744-.7141899-.71418984-.3496294-.09151544-.7214328.01274058-.9725073.27269716l-1.5 1.5c-.2859079.28599425-.3714219.71603662-.216678 1.08965456s.5192821.61725909.923678.61734544z" fill="#ffffff" data-original="#000000" class=""></path></g></g></g></svg>