<svg xmlns="http://www.w3.org/2000/svg" version="1.1" xmlns:xlink="http://www.w3.org/1999/xlink" xmlns:svgjs="http://svgjs.com/svgjs" width="512" height="512" x="0" y="0" viewBox="0 0 512 512" style="enable-background:new 0 0 512 512" xml:space="preserve" class=""><g><path xmlns="http://www.w3.org/2000/svg" d="m141.762 328.833c-3.819-1.603-8.215.194-9.818 4.013l-50.377 120.034c-1.603 3.819.194 8.215 4.014 9.818.948.398 1.932.586 2.899.586 2.93 0 5.714-1.729 6.919-4.6l50.376-120.035c1.603-3.818-.194-8.213-4.013-9.816z" fill="#5933AA" data-original="#000000" class=""></path><path xmlns="http://www.w3.org/2000/svg" d="m108.599 356.019c0-18.398-13.351-33.366-29.76-33.366s-29.759 14.968-29.759 33.366 13.35 33.366 29.759 33.366 29.76-14.968 29.76-33.366zm-29.76 18.366c-8.138 0-14.759-8.239-14.759-18.366s6.621-18.366 14.759-18.366c8.139 0 14.76 8.239 14.76 18.366s-6.621 18.366-14.76 18.366z" fill="#5933AA" data-original="#000000" class=""></path><path xmlns="http://www.w3.org/2000/svg" d="m146.874 404.723c-16.409 0-29.759 14.968-29.759 33.366s13.35 33.366 29.759 33.366 29.759-14.968 29.759-33.366-13.35-33.366-29.759-33.366zm0 51.732c-8.138 0-14.759-8.239-14.759-18.366s6.621-18.366 14.759-18.366 14.759 8.239 14.759 18.366-6.621 18.366-14.759 18.366z" fill="#5933AA" data-original="#000000" class=""></path><path xmlns="http://www.w3.org/2000/svg" d="m477.994 108.429-72.281-72.28c-21.93-21.93-51.084-34.007-82.093-34.007h-98.678c-4.143 0-7.5 3.358-7.5 7.5s3.357 7.5 7.5 7.5h82.677c29.489 0 53.48 23.992 53.48 53.481v49.692c0 18.045 14.681 32.727 32.727 32.727h49.692c29.49 0 53.481 23.991 53.481 53.481v249.119c0 9.776-7.954 17.73-17.73 17.73h-283.277c13.544-14.725 22.771-32.453 27.029-51.639h142.829c4.143 0 7.5-3.358 7.5-7.5s-3.357-7.5-7.5-7.5h-140.551c.27-3.202.415-6.429.415-9.679 0-7.527-.732-14.941-2.162-22.162h45.198c4.143 0 7.5-3.358 7.5-7.5s-3.357-7.5-7.5-7.5h-49.276c-3.971-11.421-9.783-22.156-17.29-31.835h238.138c4.143 0 7.5-3.358 7.5-7.5s-3.357-7.5-7.5-7.5h-252.093c-17.961-16.136-39.892-25.49-62.459-28.067v-250.118c0-9.776 7.954-17.73 17.73-17.73h51.442c4.143 0 7.5-3.358 7.5-7.5s-3.357-7.5-7.5-7.5h-51.442c-18.048 0-32.73 14.683-32.73 32.73v249.403c-28.2.517-56.242 11.505-77.715 32.978-21.316 21.315-33.055 49.656-33.055 79.801s11.739 58.486 33.055 79.802c22.002 22.001 50.902 33.002 79.802 33.002 23.317 0 46.631-7.166 66.325-21.487h300.088c18.048 0 32.73-14.683 32.73-32.73v-265.12c0-31.007-12.077-60.162-34.006-82.092zm-434.332 357.821c-18.483-18.483-28.662-43.058-28.662-69.196 0-26.139 10.179-50.713 28.662-69.195 19.077-19.077 44.136-28.616 69.194-28.616 25.06 0 50.118 9.539 69.195 28.616 18.483 18.482 28.662 43.057 28.662 69.195s-10.179 50.712-28.662 69.195c-38.153 38.153-100.234 38.155-138.389.001zm399.857-328.208h-49.692c-9.774 0-17.727-7.952-17.727-17.727v-49.692c0-18.729-7.564-35.721-19.79-48.097 14.447 4.921 27.688 13.12 38.797 24.229l72.28 72.28c11.109 11.109 19.308 24.351 24.229 38.797-12.376-12.226-29.368-19.79-48.097-19.79z" fill="#5933AA" data-original="#000000" class=""></path><path xmlns="http://www.w3.org/2000/svg" d="m440.321 219.379h-202.18c-4.143 0-7.5 3.358-7.5 7.5s3.357 7.5 7.5 7.5h202.181c4.143 0 7.5-3.358 7.5-7.5s-3.358-7.5-7.501-7.5z" fill="#5933AA" data-original="#000000" class=""></path><path xmlns="http://www.w3.org/2000/svg" d="m440.321 266.218h-254.403c-4.143 0-7.5 3.358-7.5 7.5s3.357 7.5 7.5 7.5h254.403c4.143 0 7.5-3.358 7.5-7.5s-3.357-7.5-7.5-7.5z" fill="#5933AA" data-original="#000000" class=""></path><path xmlns="http://www.w3.org/2000/svg" d="m440.32 359.893h-141.57c-4.143 0-7.5 3.358-7.5 7.5s3.357 7.5 7.5 7.5h141.57c4.143 0 7.5-3.358 7.5-7.5s-3.357-7.5-7.5-7.5z" fill="#5933AA" data-original="#000000" class=""></path><path xmlns="http://www.w3.org/2000/svg" d="m262.842 73.039c-1.418-3.446-4.74-5.671-8.467-5.671-.003 0-.006 0-.01 0-3.729.004-7.052 2.237-8.464 5.689-.023.057-.046.113-.067.17l-27.43 72.019c-1.475 3.871.469 8.204 4.339 9.678.879.335 1.781.493 2.669.493 3.021 0 5.87-1.84 7.01-4.833l4.992-13.106h33.718l4.938 13.084c1.462 3.876 5.79 5.832 9.665 4.369 3.875-1.462 5.831-5.79 4.368-9.665l-27.18-72.021c-.026-.069-.053-.138-.081-.206zm-19.716 49.439 11.223-29.467 11.121 29.467z" fill="#5933AA" data-original="#000000" class=""></path><path xmlns="http://www.w3.org/2000/svg" d="m169.889 72.408c-1.358-3.913-5.634-5.984-9.544-4.626-3.913 1.358-5.984 5.632-4.626 9.545l24.993 72.003c1.296 3.646 4.754 6.085 8.619 6.085h.064c3.891-.027 7.347-2.521 8.614-6.253l23.851-71.795c1.307-3.931-.822-8.176-4.753-9.482-3.929-1.306-8.176.822-9.481 4.753l-18.416 55.434z" fill="#5933AA" data-original="#000000" class=""></path><path xmlns="http://www.w3.org/2000/svg" d="m335.905 67.367h-40.341c-4.143 0-7.5 3.358-7.5 7.5s3.357 7.5 7.5 7.5h12.589v65.547c0 4.142 3.357 7.5 7.5 7.5s7.5-3.358 7.5-7.5v-65.547h12.752c4.143 0 7.5-3.358 7.5-7.5s-3.357-7.5-7.5-7.5z" fill="#5933AA" data-original="#000000" class=""></path></g></svg>